# AST/ASF file generated using VICON BodyLanguage
# -----------------------------------------------
:version 1.10
:name VICON
:units
  mass 1.0
  length 0.45
  angle deg
:documentation
   .ast/.asf automatically generated from VICON data using
   VICON BodyBuilder and BodyLanguage model FoxedUp or BRILLIANT.MOD
:root
   order TX TY TZ RX RY RZ
   axis XYZ
   position 0 0 0  
   orientation 0 0 0 
:bonedata
  begin
     id 1 
     name lhipjoint
     direction 0.64773 -0.699417 0.302095 
     length 2.48597 
     axis 0 0 0  XYZ
  end
  begin
     id 2 
     name lfemur
     direction 0.34202 -0.939693 0  
     length 6.71947  
     axis 0 0 20  XYZ
    dof rx ry rz
    limits (-160.0 20.0)
           (-70.0 70.0)
           (-60.0 70.0)
  end
  begin
     id 3 
     name ltibia
     direction 0.34202 -0.939693 0   
     length 8.08777   
     axis 0 0 20   XYZ
    dof rx
    limits (-10.0 170.0)
  end
  begin
     id 4 
     name lfoot
     direction 0.0808503 -0.222134 0.971658   
     length 2.08264   
     axis -90 7.62852e-016 20   XYZ
    dof rx rz
    limits (-45.0 90.0)
           (-70.0 20.0)
  end
  begin
     id 5 
     name ltoes
     direction 1.53502e-011 -4.22007e-011 1   
     length 1.04662   
     axis -90 7.62852e-016 20   XYZ
    dof rx
    limits (-90.0 20.0)
  end
  begin
     id 6 
     name rhipjoint
     direction -0.610924 -0.726792 0.313919   
     length 2.39233  
     axis 0 0 0  XYZ 
  end
  begin
     id 7 
     name rfemur
     direction -0.34202 -0.939693 0   
     length 6.96955   
     axis 0 0 -20   XYZ
    dof rx ry rz
    limits (-160.0 20.0)
           (-70.0 70.0)
           (-70.0 60.0)
  end
  begin
     id 8 
     name rtibia
     direction -0.34202 -0.939693 0   
     length 8.19584   
     axis 0 0 -20   XYZ
    dof rx
    limits (-10.0 170.0)
 end
 begin
     id 9 
     name rfoot
     direction -0.077777 -0.213691 0.9738   
     length 2.07539  
     axis -90 -7.62852e-016 -20   XYZ
    dof rx rz
    limits (-45.0 90.0)
           (-20.0 70.0)
  end
  begin
     id 10 
     name rtoes
     direction -1.53558e-011 -4.22006e-011 1   
     length 1.04381   
     axis -90 -7.62852e-016 -20   XYZ
    dof rx
    limits (-90.0 20.0)
  end
  begin
     id 11 
     name lowerback
     direction -0.00971646 0.996074 0.0879841   
     length 1.67643   
     axis 0 0 0   XYZ
    dof rx ry rz
    limits (-20.0 45.0)
           (-30.0 30.0)
           (-30.0 30.0)
  end
  begin
     id 12 
     name upperback
     direction 0.0127391 0.991676 0.128127   
     length 1.63741   
     axis 0 0 0   XYZ
    dof rx ry rz
    limits (-20.0 45.0)
           (-30.0 30.0)
           (-30.0 30.0)
  end
  begin
     id 13 
     name thorax
     direction 0.0167583 0.996049 0.0872067   
     length 1.65931   
     axis 0 0 0   XYZ
    dof rx ry rz
    limits (-20.0 45.0)
           (-30.0 30.0)
           (-30.0 30.0)
  end
  begin
     id 14 
     name lowerneck
     direction -0.0317829 0.998312 0.0486079   
     length 1.79021   
     axis 0 0 0   XYZ
    dof rx ry rz
    limits (-20.0 45.0)
           (-30.0 30.0)
           (-30.0 30.0)
  end
  begin
     id 15 
     name upperneck
     direction 0.0896851 0.972452 -0.215159   
     length 1.78797   
     axis 0 0 0   XYZ
    dof rx ry rz
    limits (-20.0 45.0)
           (-30.0 30.0)
           (-30.0 30.0)
  end
  begin
     id 16
     name head
     direction 0.0310949 0.996503 -0.0775582  
     length 1.81549  
     axis 0 0 0   XYZ
    dof rx ry rz
    limits (-20.0 45.0)
           (-30.0 30.0)
           (-30.0 30.0)
  end
  begin
     id 17 
     name lclavicle
     direction 0.853638 0.502051 -0.138733  
     length 3.31627  
     axis 0 0 0   XYZ
    dof ry rz
    limits (-20.0 10.0)
           (0.0 20.0)
  end
  begin
     id 18 
     name lhumerus
     direction 1 -4.48962e-011 -1.41788e-018   
     length 5.54893   
     axis 180 -30 -90   XYZ
    dof rx ry rz
    limits (-60.0 90.0)
           (-90.0 90.0)
           (-90.0 90.0)
  end
  begin
     id 19
     name lradius
     direction 1 -4.48962e-011 -4.95754e-027   
     length 3.02898   
     axis 180 -30 -90   XYZ
    dof rx
    limits (-10.0 170.0)
  end
  begin
     id 20
     name lwrist
     direction 1 -4.48952e-011 -1.03764e-026   
     length 1.51449   
     axis 9.09556e-015 90 90   XYZ
    dof ry
    limits (-180.0 0.0)
 end
  begin
     id 21 
     name lhand
     direction 1 -4.4902e-011 -2.07528e-026   
     length 0.640951   
     axis 1.3242e-014 90 90   XYZ
    dof rx rz
    limits (-90.0 90.0)
           (-45.0 45.0)
  end
  begin
     id 22 
     name lfingers
     direction 1 -4.49014e-011 -4.15056e-026   
     length 0.516751   
     axis 2.64841e-014 90 90   XYZ
    dof rx
    limits (0.0 90.0)
  end
  begin
     id 23
     name lthumb
     direction 0.707107 -6.35008e-011 0.707107   
     length 0.741954   
     axis -90 45 2.85299e-015   XYZ
    dof rx rz
    limits (-45.0 45.0)
           (-45.0 45.0)
  end
  begin
     id 24 
     name rclavicle
     direction -0.888531 0.455324 -0.0565039   
     length 3.20126  
     axis 0 0 0   XYZ 
    dof ry rz
    limits (-10.0 20.0)
           (-20.0 0.0)
  end
  begin
     id 25 
     name rhumerus
     direction -1 -4.48946e-011 -8.98298e-028  
     length 5.3519   
     axis 180 30 90   XYZ
    dof rx ry rz
    limits (-90.0 60.0)
           (-90.0 90.0)
           (-90.0 90.0)
  end
  begin
     id 26 
     name rradius
     direction -1 -4.4899e-011 -3.18779e-027   
     length 3.02531   
     axis 180 30 90   XYZ
    dof rx
    limits (-10.0 170.0)
  end
  begin
     id 27 
     name rwrist
     direction -1 -4.4897e-011 -1.03764e-026   
     length 1.51266   
     axis 9.09556e-015 -90 -90   XYZ
    dof ry
    limits (-180.0 0.0)
  end
  begin
     id 28
     name rhand
     direction -1 -4.48941e-011 -2.07528e-026   
     length 0.78389   
     axis 1.3242e-014 -90 -90   XYZ
    dof rx rz
    limits (-90.0 90.0)
           (-45.0 45.0)
  end
  begin
     id 29
     name rfingers
     direction -1 -4.49012e-011 -4.15056e-026   
     length 0.631992   
     axis 2.64841e-014 -90 -90   XYZ
    dof rx
    limits (0.0 90.0)
  end
  begin
     id 30
     name rthumb
     direction -0.707107 -6.3496e-011 0.707107   
     length 0.907418   
     axis -90 -45 -2.85299e-015   XYZ
    dof rx rz
    limits (-45.0 45.0)
           (-45.0 45.0)
  end
:hierarchy
  begin
    root lhipjoint rhipjoint lowerback
    lhipjoint lfemur
    lfemur ltibia
    ltibia lfoot
    lfoot ltoes
    rhipjoint rfemur
    rfemur rtibia
    rtibia rfoot
    rfoot rtoes
    lowerback upperback
    upperback thorax
    thorax lowerneck lclavicle rclavicle
    lowerneck upperneck
    upperneck head
    lclavicle lhumerus
    lhumerus lradius
    lradius lwrist
    lwrist lhand lthumb
    lhand lfingers
    rclavicle rhumerus
    rhumerus rradius
    rradius rwrist
    rwrist rhand rthumb
    rhand rfingers
  end

#!OML:ASF E:\Style3\Style3.ASF
:FULLY-SPECIFIED
:DEGREES
203
root -0.758874 17.9071 0.557635 -24.4771 87.1239 -39.1481
lowerback -8.11641 -1.30673 -1.37985
upperback -10.6411 -1.11463 1.22687
thorax -6.55435 -0.178353 2.00574
lowerneck -13.3715 -2.73538 -5.55869
upperneck 25.0736 -4.78889 10.265
head 10.6317 -1.33729 4.05577
rclavicle 1.38031e-014 7.95139e-016
rhumerus -11.7509 53.5975 -76.6555
rradius 74.0894
rwrist -61.1227
rhand 5.67409 6.52443
rfingers 7.12502
rthumb 31.0127 -20.8746
lclavicle 1.38031e-014 7.95139e-016
lhumerus 2.07773 -41.298 60.4333
lradius 107.2
lwrist 92.822
lhand 4.45586 18.8452
lfingers 7.12502
lthumb 29.8508 46.4594
rfemur -16.5392 12.2129 17.2848
rtibia 12.6884
rfoot -10.2882 -16.8067
rtoes -17.8278
lfemur 0 0 0
ltibia 0
lfoot 0 0
ltoes 0
204
root -0.766882 17.9084 0.556782 -20.3317 86.9405 -34.8991
lowerback -8.05052 -1.2382 -1.4535
upperback -10.6342 -1.02629 1.18509
thorax -6.58738 -0.131648 2.00623
lowerneck -13.3496 -2.72688 -5.59775
upperneck 25.1441 -4.78992 10.3428
head 10.6565 -1.32991 4.09419
rclavicle 1.06474e-014 -6.31141e-015
rhumerus -8.77912 54.0182 -74.6898
rradius 72.933
rwrist -61.3741
rhand 5.17385 6.74546
rfingers 7.12502
rthumb 30.5358 -20.7434
lclavicle 1.06474e-014 -6.31141e-015
lhumerus 4.21201 -41.5176 58.5787
lradius 107.345
lwrist 93.694
lhand 5.20284 18.9116
lfingers 7.12502
lthumb 30.5634 46.3953
rfemur -16.5441 12.1139 17.2069
rtibia 12.775
rfoot -10.3157 -16.4373
rtoes -17.7306
lfemur 0 0 0
ltibia 0
lfoot 0 0
ltoes 0
205
root -0.774868 17.9086 0.557901 -17.8452 86.751 -32.3022
lowerback -7.92635 -1.17485 -1.49255
upperback -10.6543 -0.945614 1.13922
thorax -6.68315 -0.0898532 1.98367
lowerneck -13.262 -2.71552 -5.60594
upperneck 25.1519 -4.80183 10.4599
head 10.6466 -1.32273 4.13808
rclavicle -2.26863e-014 -3.57812e-015
rhumerus -5.91556 54.1585 -72.8464
rradius 71.83
rwrist -61.3674
rhand 4.78342 7.17097
rfingers 7.12502
rthumb 30.1634 -20.3866
lclavicle -2.26863e-014 -3.57812e-015
lhumerus 6.27045 -42.0755 56.6487
lradius 107.587
lwrist 93.7455
lhand 6.2053 18.7534
lfingers 7.12502
lthumb 31.5189 46.0547
rfemur -16.5696 12.1755 17.1834
rtibia 12.9252
rfoot -10.3101 -16.3042
rtoes -17.9843
lfemur 0 0 0
ltibia 0
lfoot 0 0
ltoes 0
206
root -0.782664 17.9071 0.557591 -16.143 86.6087 -30.5588
lowerback -7.86387 -1.09133 -1.42859
upperback -10.6896 -0.840871 1.02446
thorax -6.76393 -0.0454656 1.8305
lowerneck -13.2866 -2.72348 -5.53109
upperneck 25.2442 -4.85563 10.5458
head 10.6918 -1.32483 4.15364
rclavicle 3.77691e-015 -1.30204e-014
rhumerus -3.21446 53.9813 -71.0876
rradius 70.8552
rwrist -61.5545
rhand 4.50719 7.56619
rfingers 7.12502
rthumb 29.8998 -20.0392
lclavicle 3.77691e-015 -1.30204e-014
lhumerus 8.36338 -42.9798 54.5849
lradius 107.818
lwrist 93.2415
lhand 7.2068 18.6333
lfingers 7.12502
lthumb 32.4725 45.7433
rfemur -16.669 12.2705 17.1358
rtibia 13.0745
rfoot -10.2874 -16.2666
rtoes -18.2162
lfemur 0 0 0
ltibia 0
lfoot 0 0
ltoes 0
207
root -0.793933 17.9031 0.557223 -15.1641 86.4554 -29.5961
lowerback -7.7921 -1.0149 -1.3268
upperback -10.7084 -0.74709 0.937457
thorax -6.83094 -0.00916518 1.68487
lowerneck -13.4713 -2.73534 -5.54495
upperneck 25.3604 -4.90561 10.6746
head 10.781 -1.32537 4.20213
rclavicle 1.44119e-015 -4.57205e-015
rhumerus -0.345559 53.7493 -69.175
rradius 69.9814
rwrist -62.0539
rhand 4.02841 7.70961
rfingers 7.12502
rthumb 29.4428 -19.9771
lclavicle 1.44119e-015 -4.57205e-015
lhumerus 10.392 -44.0294 52.3872
lradius 108.003
lwrist 92.5805
lhand 7.85665 18.5741
lfingers 7.12502
lthumb 33.0907 45.5551
rfemur -16.8172 12.3996 17.1118
rtibia 13.1628
rfoot -10.288 -16.2126
rtoes -18.2387
lfemur 0 0 0
ltibia 0
lfoot 0 0
ltoes 0
208
root -0.809625 17.9025 0.560309 -13.7912 86.3167 -28.2068
lowerback -7.61367 -1.01152 -1.3889
upperback -10.7332 -0.744318 0.956032
thorax -6.95832 -0.00177932 1.74123
lowerneck -13.6197 -2.7164 -5.66991
upperneck 25.4679 -4.87712 10.7701
head 10.8535 -1.30717 4.26802
rclavicle -1.26477e-014 2.48481e-015
rhumerus 2.5769 53.5836 -67.1595
rradius 69.2729
rwrist -62.6196
rhand 3.56888 7.82382
rfingers 7.12502
rthumb 29.004 -19.9392
lclavicle -1.26477e-014 2.48481e-015
lhumerus 12.2038 -45.1008 50.2427
lradius 108.207
lwrist 91.9725
lhand 8.62156 18.8367
lfingers 7.12502
lthumb 33.8178 45.6607
rfemur -16.9381 12.6941 17.0473
rtibia 13.2255
rfoot -10.1557 -16.3491
rtoes -18.6295
lfemur 0 0 0
ltibia 0
lfoot 0 0
ltoes 0
209
root -0.823172 17.9025 0.564291 -13.6102 86.2566 -28.0044
lowerback -7.4166 -1.06943 -1.41633
upperback -10.8037 -0.818933 1.01913
thorax -7.14361 -0.0309417 1.82451
lowerneck -13.6445 -2.66474 -5.76447
upperneck 25.5863 -4.78199 10.754
head 10.8943 -1.27149 4.29638
rclavicle 6.95746e-016 1.55052e-014
rhumerus 5.23348 53.3264 -65.3632
rradius 68.7242
rwrist -63.3074
rhand 2.9003 7.95692
rfingers 7.12502
rthumb 28.3653 -19.9142
lclavicle 6.95746e-016 1.55052e-014
lhumerus 13.8564 -46.3928 48.1217
lradius 108.368
lwrist 91.1988
lhand 10.2248 19.1056
lfingers 7.12502
lthumb 35.3396 45.5817
rfemur -17.0091 12.8839 17.0527
rtibia 13.2991
rfoot -10.0538 -16.4924
rtoes -18.6878
lfemur 0 0 0
ltibia 0
lfoot 0 0
ltoes 0
210
root -0.829572 17.9031 0.56353 -13 86.1643 -27.3584
lowerback -7.39379 -1.03392 -1.39153
upperback -10.787 -0.77553 0.999124
thorax -7.14032 -0.0131575 1.79034
lowerneck -13.6226 -2.66711 -5.72205
upperneck 25.5228 -4.77691 10.6886
head 10.8628 -1.27583 4.26226
rclavicle 7.55382e-015 -6.16232e-015
rhumerus 7.69278 52.6958 -63.6903
rradius 68.3899
rwrist -64.2728
rhand 1.71939 8.19391
rfingers 7.12502
rthumb 27.2362 -19.8597
lclavicle 7.55382e-015 -6.16232e-015
lhumerus 15.8315 -47.9538 45.792
lradius 108.464
lwrist 90.1043
lhand 11.9951 19.3251
lfingers 7.12502
lthumb 37.0161 45.3854
rfemur -17.0114 12.7864 17.0756
rtibia 13.3232
rfoot -10.0628 -16.2993
rtoes -18.5639
lfemur 0 0 0
ltibia 0
lfoot 0 0
ltoes 0
211
root -0.832588 17.9002 0.559125 -11.8816 86.0454 -26.2189
lowerback -7.61719 -0.982493 -1.37492
upperback -10.6412 -0.714403 0.974997
thorax -6.85617 0.00713823 1.75358
lowerneck -13.6692 -2.6614 -5.71404
upperneck 25.339 -4.76763 10.7075
head 10.8033 -1.27454 4.26137
rclavicle 1.2424e-014 6.55989e-015
rhumerus 10.1761 51.842 -62.0388
rradius 68.1848
rwrist -65.0252
rhand 0.298401 8.63862
rfingers 7.12502
rthumb 25.8762 -19.6208
lclavicle 1.2424e-014 6.55989e-015
lhumerus 18.0371 -49.5125 43.2349
lradius 108.546
lwrist 88.7671
lhand 12.8364 19.3732
lfingers 7.12502
lthumb 37.8113 45.2235
rfemur -17.0224 12.7879 17.0318
rtibia 13.3277
rfoot -10.071 -16.1696
rtoes -18.5664
lfemur 0 0 0
ltibia 0
lfoot 0 0
ltoes 0
212
root -0.835397 17.8979 0.557322 -11.9142 85.9528 -26.2886
lowerback -7.73463 -0.944436 -1.2564
upperback -10.5898 -0.66952 0.945275
thorax -6.73645 0.0169538 1.65554
lowerneck -13.7304 -2.67427 -5.68461
upperneck 25.2159 -4.78474 10.6941
head 10.7706 -1.28466 4.24364
rclavicle 9.24349e-015 1.00386e-014
rhumerus 12.2181 50.8752 -60.7505
rradius 68.2449
rwrist -65.6288
rhand -0.669707 9.09775
rfingers 7.12502
rthumb 24.9488 -19.2936
lclavicle 9.24349e-015 1.00386e-014
lhumerus 20.1751 -51.2654 40.5819
lradius 108.555
lwrist 87.281
lhand 13.6267 19.3767
lfingers 7.12502
lthumb 38.5574 45.0221
rfemur -17.0976 12.9178 17.0301
rtibia 13.3404
rfoot -10.0915 -16.216
rtoes -18.5928
lfemur 0 0 0
ltibia 0
lfoot 0 0
ltoes 0
213
root -0.838908 17.8988 0.556799 -11.7708 85.966 -26.1801
lowerback -7.63411 -0.933516 -1.13353
upperback -10.6417 -0.661171 0.86064
thorax -6.85237 0.0108436 1.49922
lowerneck -13.8192 -2.69173 -5.64412
upperneck 25.2137 -4.82533 10.7177
head 10.7915 -1.29467 4.23978
rclavicle 1.45858e-014 -6.95746e-015
rhumerus 13.859 49.8403 -59.8632
rradius 68.5507
rwrist -66.2405
rhand -1.55722 9.62197
rfingers 7.12502
rthumb 24.098 -18.8847
lclavicle 1.45858e-014 -6.95746e-015
lhumerus 22.2211 -53.1326 37.9596
lradius 108.466
lwrist 85.7034
lhand 14.4606 19.6091
lfingers 7.12502
lthumb 39.3437 45.0298
rfemur -17.145 12.9431 17.0033
rtibia 13.3281
rfoot -10.0057 -16.2768
rtoes -18.7224
lfemur 0 0 0
ltibia 0
lfoot 0 0
ltoes 0
214
root -0.84076 17.9013 0.555521 -11.4435 85.9892 -25.8694
lowerback -7.56135 -0.935191 -1.06089
upperback -10.6741 -0.66679 0.819938
thorax -6.92994 0.0022826 1.41657
lowerneck -13.8504 -2.70173 -5.66557
upperneck 25.1472 -4.83206 10.7181
head 10.7743 -1.30195 4.23995
rclavicle -1.39895e-014 6.06293e-015
rhumerus 15.4382 48.7697 -58.9605
rradius 68.9797
rwrist -66.6528
rhand -2.47017 10.3431
rfingers 7.12502
rthumb 23.2224 -18.2768
lclavicle -1.39895e-014 6.06293e-015
lhumerus 24.2103 -54.9749 35.4223
lradius 108.289
lwrist 84.1009
lhand 14.9808 19.8123
lfingers 7.12502
lthumb 39.8335 45.0884
rfemur -17.1322 13.0132 16.9427
rtibia 13.2523
rfoot -9.94683 -16.3374
rtoes -18.7027
lfemur 0 0 0
ltibia 0
lfoot 0 0
ltoes 0
215
root -0.842156 17.9038 0.553876 -11.9268 86.032 -26.3378
lowerback -7.5118 -0.963189 -1.06091
upperback -10.6555 -0.704325 0.874668
thorax -6.93567 -0.0150675 1.47396
lowerneck -13.8911 -2.68437 -5.6899
upperneck 25.0088 -4.7817 10.663
head 10.725 -1.29294 4.2246
rclavicle 1.73937e-016 -1.48095e-014
rhumerus 16.8662 47.576 -58.1199
rradius 69.5598
rwrist -66.87
rhand -3.08297 10.8317
rfingers 7.12502
rthumb 22.6343 -17.8612
lclavicle 1.73937e-016 -1.48095e-014
lhumerus 26.2396 -56.7555 32.9125
lradius 108.011
lwrist 82.4207
lhand 14.6786 20.0869
lfingers 7.12502
lthumb 39.549 45.4474
rfemur -17.0548 12.9631 16.9683
rtibia 13.1582
rfoot -9.86429 -16.3354
rtoes -18.7841
lfemur 0 0 0
ltibia 0
lfoot 0 0
ltoes 0
216
root -0.843023 17.9052 0.552625 -12.4596 86.1055 -26.9128
lowerback -7.49828 -1.00855 -1.12803
upperback -10.6662 -0.757172 0.978658
thorax -6.95145 -0.0311713 1.62013
lowerneck -13.9404 -2.66013 -5.77922
upperneck 24.931 -4.70704 10.6041
head 10.6987 -1.27743 4.22503
rclavicle 8.69683e-015 -8.15017e-015
rhumerus 18.0471 46.3356 -57.4059
rradius 70.4301
rwrist -67.078
rhand -3.56961 10.9842
rfingers 7.12502
rthumb 22.1672 -17.7649
lclavicle 8.69683e-015 -8.15017e-015
lhumerus 28.0527 -58.4674 30.658
lradius 107.649
lwrist 80.7886
lhand 14.3674 20.2953
lfingers 7.12502
lthumb 39.2559 45.7416
rfemur -17.048 12.9716 16.9669
rtibia 13.103
rfoot -9.81974 -16.4417
rtoes -18.9938
lfemur 0 0 0
ltibia 0
lfoot 0 0
ltoes 0
217
root -0.84379 17.9057 0.550153 -13.2702 86.1942 -27.7781
lowerback -7.44327 -1.06243 -1.13101
upperback -10.7306 -0.819536 1.08115
thorax -7.05021 -0.0539689 1.7296
lowerneck -13.8982 -2.60756 -5.83015
upperneck 24.8138 -4.5869 10.4903
head 10.6327 -1.24689 4.20284
rclavicle 8.69683e-015 -3.77691e-015
rhumerus 19.0263 45.1326 -56.8632
rradius 71.5018
rwrist -67.5292
rhand -4.15686 11.1209
rfingers 7.12502
rthumb 21.6033 -17.694
lclavicle 8.69683e-015 -3.77691e-015
lhumerus 29.6442 -60.1862 28.6613
lradius 107.233
lwrist 79.3499
lhand 14.189 20.5891
lfingers 7.12502
lthumb 39.0877 46.0839
rfemur -17.0882 12.9289 16.9724
rtibia 13.1134
rfoot -9.86922 -16.4478
rtoes -18.5777
lfemur 0 0 0
ltibia 0
lfoot 0 0
ltoes 0
